<?xml version="1.0" encoding="utf-8"?>
<!-- Generator: Adobe Illustrator 23.0.1, SVG Export Plug-In . SVG Version: 6.00 Build 0)  -->
<svg version="1.1" xmlns="http://www.w3.org/2000/svg" xmlns:xlink="http://www.w3.org/1999/xlink" x="0px" y="0px"
	 viewBox="0 0 644.14 143.07" style="enable-background:new 0 0 644.14 143.07;" xml:space="preserve">
<style type="text/css">
	.st0{fill:#FFDD00;}
	.st1{fill:#FFFFFF;}
	.st2{display:none;}
	.st3{display:inline;}
	svg{width:225px;height:auto;}
</style>
<g id="ARTWORK">
	<path class="st0" d="M197.54,89.12l1.7,6.33l-0.81,0.41c-1.9,0.91-3.75,1.52-6.6,1.52c-6.23,0-10.09-3.84-10.09-10.02l-0.01-18.6
		h-6.4v-6.39h6.4v-9.17l7.68-2.06v11.23h8.11v6.39h-8.11l0.01,17.62c0,2.25,1.5,3.8,3.82,3.94c1.29,0.08,2.57-0.3,3.7-0.88
		L197.54,89.12z M386.58,62.36l0,34.64h7.68l0-34.64H386.58z M435.51,79.68c0,10.09-7.58,17.7-17.64,17.7
		c-10.1,0-17.71-7.61-17.71-17.7c0-10.09,7.61-17.7,17.71-17.7C427.93,61.98,435.51,69.59,435.51,79.68z M427.86,79.68
		c0-6.09-4.2-10.51-9.99-10.51c-5.83,0-10.06,4.42-10.06,10.51c0,6.09,4.23,10.51,10.06,10.51
		C423.66,90.19,427.86,85.77,427.86,79.68z M335.04,78.77c0,0,0.7,10.79-11.1,10.79c-11.8,0-11.09-10.85-11.09-10.85v-27.8h-8.11
		v27.54c0,11.52,7.54,18.93,19.2,18.93c11.66,0,19.2-7.41,19.2-18.87v-27.6h-8.11V78.77z M390.42,46.08c-3.22,0-5.83,2.61-5.83,5.83
		c0,1.47,0.55,2.82,1.45,3.84h8.76c0.9-1.03,1.45-2.37,1.45-3.84C396.25,48.69,393.64,46.08,390.42,46.08z M256.68,62.05
		c-2.31,0.3-4.73,1.08-6.89,2.81v-2.5h0l0,0h-7.68l0,34.64h7.68v0l0-21.06c0-0.71,0.12-1.41,0.39-2.07
		c0.66-1.58,1.93-3.24,3.79-4.04c1.25-0.54,2.44-0.72,3.46-0.72l0,0c1.11,0,2.74,0.18,3.88,0.77v-7.4
		C261.3,62.48,258.99,61.75,256.68,62.05z M101.06,50.92L92.28,83.7L81.74,50.92h-8.26L62.94,83.7l-8.79-32.79h-8.08L58.43,97h8.08
		l11.11-34.18L88.72,97h0h8.08l12.35-46.08H101.06z M125.89,97.38c-10.1-0.03-17.66-7.59-17.68-17.69c0-2.23,0.38-4.47,1.16-6.56
		c1.19-3.16,3.3-5.95,6.05-7.92c3-2.14,6.68-3.23,10.35-3.23c4.86,0,8.79,1.69,11.62,4.72c1.94,2.09,3.25,4.74,4.01,7.47
		c0.68,2.45,0.75,4.91,0.75,7.44h-26.36l0.15,0.75c0.97,4.65,4.95,7.77,9.95,7.78c4.32-0.01,7.15-2.04,8.64-3.54l5.26,4.9
		C136.6,95.15,131.4,97.37,125.89,97.38z M134.26,76.05c-0.34-2.23-1.41-4.29-3.19-5.61c-1.93-1.43-3.81-1.7-5.85-1.7
		c-2.83,0-5.4,1.34-7.18,3.41c-1.42,1.64-2.06,3.89-2.06,3.89H134.26z M219.95,97.38c-10.1-0.03-17.66-7.59-17.68-17.69
		c0-2.23,0.38-4.47,1.16-6.56c1.19-3.16,3.3-5.95,6.05-7.92c3-2.14,6.68-3.23,10.35-3.23c4.86,0,8.79,1.69,11.62,4.72
		c1.94,2.09,3.25,4.74,4.01,7.47c0.68,2.45,0.75,4.91,0.75,7.44h-26.36l0.15,0.75c0.97,4.65,4.95,7.77,9.95,7.78
		c4.32-0.01,7.15-2.04,8.64-3.54l5.26,4.9C230.65,95.15,225.46,97.37,219.95,97.38z M228.31,76.05c-0.34-2.23-1.41-4.29-3.19-5.61
		c-1.93-1.43-3.81-1.7-5.85-1.7c-2.83,0-5.4,1.34-7.18,3.41c-1.42,1.64-2.06,3.89-2.06,3.89H228.31z M161.04,75.8
		c-3.34-0.79-5.7-1.64-5.74-3.61c-0.05-2.64,2.27-3.44,6.29-3.44c1.66,0,6.93-0.01,6.93-0.01v-6.39l-6.86,0.01
		c-6.03,0-13.61,1.3-13.61,10.3c0.07,4.04,2.82,7.17,7.94,8.78c1.18,0.37,2.38,0.65,3.54,0.93c3.56,0.85,6.63,1.71,6.67,4.36
		c0.04,2.4-3.16,3.84-5.84,3.89c-4.72,0-7.84-2.72-8.82-3.71l-5.01,4.67c0,0,4.38,5.78,14.13,5.78c6.39,0,12.92-4.14,12.81-10.9
		C173.35,79.77,167.12,77.25,161.04,75.8z M366.3,61.98c-2.72,0-5.9,0.46-8.68,2.49l0-2.11h-7.68V97h0h7.68h0l0-20.92
		c0-3.09,2.48-6.79,7.35-6.79c4.27,0,7.15,2.9,7.15,7.22V97h7.68V76.01C379.8,67.43,374.3,61.98,366.3,61.98z M284.46,61.98
		c-2.72,0-5.9,0.46-8.68,2.49l0-2.11h-7.68V97h0h7.68h0l0-20.92c0-3.09,2.48-6.79,7.35-6.79c4.27,0,7.15,2.9,7.15,7.22V97h7.68
		V76.01C297.96,67.43,292.46,61.98,284.46,61.98z M457.77,61.98c-2.72,0-5.9,0.46-8.68,2.49l0-2.11h-7.68V97h0h7.68h0l0-20.92
		c0-3.09,2.48-6.79,7.35-6.79c4.27,0,7.15,2.9,7.15,7.22V97h7.68V76.01C471.27,67.43,465.78,61.98,457.77,61.98z"/>
	<g>
		<path class="st0" d="M559.16,50.92L546.62,97h-9.1l-9.5-30.55L518.52,97h-9.04l-12.66-46.08h9.86l7.75,29.16l9.06-29.16h9.12
			l9.22,29.38l7.58-29.38H559.16z M588.13,50.92v28.38l0,0.07c0,0.04,0.2,3.9-2.29,6.55c-1.62,1.72-4.05,2.59-7.23,2.59
			c-3.18,0-5.61-0.87-7.23-2.59c-2.49-2.65-2.29-6.51-2.29-6.55l0-28.45H565l-5.84,21.46v6.67c0,5.68,1.84,10.49,5.32,13.92
			c3.48,3.42,8.36,5.23,14.13,5.23c5.76,0,10.65-1.81,14.13-5.23c3.48-3.42,5.32-8.24,5.32-13.92V50.92H588.13z"/>
		<path class="st1" d="M491.62,97l-12.66-46.08h3.23L494.86,97H491.62z M503.79,97l-12.66-46.08h-3.23L500.55,97H503.79z"/>
	</g>
</g>
<g id="GUIDES" class="st2">
	<g class="st3">
	</g>
</g>
</svg>
